<svg width="141" height="44" viewBox="0 0 141 44" fill="none" xmlns="http://www.w3.org/2000/svg">
<g clip-path="url(#clip0_422_23876)">
<path d="M12.6808 24.2852L0 43.0775H11.2403L16.341 35.5038C17.5217 33.7287 18.1357 32.4743 16.0812 29.3028L12.6808 24.2852Z" fill="url(#paint0_linear_422_23876)"/>
<path d="M36.6252 5.49316H25.4085L18.3242 15.9781L21.7247 20.9957C23.7791 24.1435 23.1415 25.4216 21.9844 27.1967L36.6252 5.49316Z" fill="#6316DB"/>
<path d="M21.7014 20.972L11.2403 5.49316H0L16.0812 29.3032C18.1357 32.451 17.4981 33.7291 16.341 35.5042L16.7424 34.8888L21.9611 27.173C23.1419 25.3979 23.7794 24.1435 21.7014 20.972Z" fill="#FB2576"/>
<path d="M64.9852 42.2018C63.0488 41.3498 61.8917 40.19 60.7583 38.6989C59.6248 37.2079 59.0108 35.5511 58.8691 33.705H67.1105C67.2049 34.6991 67.6772 35.5038 68.4801 36.1191C69.3066 36.7345 70.2984 37.0422 71.5027 37.0422C72.589 37.0422 73.4391 36.8292 74.0294 36.4032C74.6198 35.9771 74.9268 35.4328 74.9268 34.7464C74.9268 33.918 74.5017 33.3263 73.6516 32.924C72.8015 32.5216 71.4319 32.0956 69.5191 31.6222C67.4883 31.1489 65.7645 30.6518 64.4185 30.1075C63.0488 29.5868 61.8918 28.7347 60.9 27.5987C59.9082 26.4626 59.4123 24.9242 59.4123 22.9597C59.4123 21.3266 59.8609 19.8356 60.7583 18.4865C61.6556 17.1374 62.978 16.0724 64.7491 15.2913C66.4965 14.5103 68.5745 14.1079 71.0068 14.1079C74.5725 14.1079 77.4062 15.0073 79.4607 16.7587C81.5151 18.5338 82.6958 20.877 83.0028 23.8118H74.9504C74.8087 22.8177 74.3836 22.0367 73.6516 21.4687C72.9196 20.9006 71.9514 20.5929 70.7707 20.5929C69.7553 20.5929 68.976 20.7823 68.4329 21.1846C67.8897 21.587 67.6064 22.1077 67.6064 22.7941C67.6064 23.6224 68.0314 24.2378 68.9051 24.6402C69.7789 25.0425 71.1249 25.4685 72.9668 25.8709C75.0684 26.4153 76.7923 26.9596 78.1147 27.4803C79.4371 28.001 80.6178 28.8531 81.6096 30.0365C82.625 31.2199 83.1209 32.7819 83.1681 34.7701C83.1681 36.4505 82.6958 37.9416 81.7749 39.2433C80.8303 40.5687 79.4843 41.5864 77.7368 42.3438C75.9894 43.1012 73.9586 43.4799 71.6444 43.4799C69.1413 43.4799 66.9216 43.0539 64.9852 42.2018Z" fill="#6316DB"/>
<path d="M90.9383 42.2018C89.002 41.3498 87.8449 40.19 86.7114 38.6989C85.5779 37.2079 84.964 35.5511 84.8223 33.705H93.0636C93.1581 34.6991 93.6303 35.5038 94.4332 36.1191C95.2597 36.7345 96.2515 37.0422 97.4558 37.0422C98.5421 37.0422 99.3922 36.8292 99.9825 36.4032C100.573 35.9771 100.88 35.4328 100.88 34.7464C100.88 33.918 100.455 33.3263 99.6047 32.924C98.7546 32.5216 97.385 32.0956 95.4722 31.6222C93.4414 31.1489 91.7176 30.6518 90.3716 30.1075C89.002 29.5868 87.8449 28.7347 86.8531 27.5987C85.8613 26.4626 85.3654 24.9242 85.3654 22.9597C85.3654 21.3266 85.8141 19.8356 86.7114 18.4865C87.6087 17.1374 88.9311 16.0724 90.7022 15.2913C92.4496 14.5103 94.5277 14.1079 96.9599 14.1079C100.526 14.1079 103.359 15.0073 105.414 16.7587C107.468 18.5338 108.649 20.877 108.956 23.8118H100.88C100.738 22.8177 100.313 22.0367 99.5811 21.4687C98.8491 20.9006 97.8809 20.5929 96.7002 20.5929C95.6848 20.5929 94.9055 20.7823 94.3624 21.1846C93.8193 21.587 93.5359 22.1077 93.5359 22.7941C93.5359 23.6224 93.9609 24.2378 94.8347 24.6402C95.7084 25.0425 97.0544 25.4685 98.8963 25.8709C100.998 26.4153 102.722 26.9596 104.044 27.4803C105.367 28.001 106.547 28.8531 107.539 30.0365C108.554 31.2199 109.05 32.7819 109.098 34.7701C109.098 36.4505 108.625 37.9416 107.704 39.2433C106.76 40.5687 105.414 41.5864 103.666 42.3438C101.919 43.1012 99.8881 43.4799 97.5739 43.4799C95.0708 43.4799 92.8747 43.0539 90.9383 42.2018Z" fill="#6316DB"/>
<path d="M120.103 14.5103H111.861V43.0538H120.103V14.5103Z" fill="#6316DB"/>
<path d="M117.826 11.3014C120.296 10.2759 121.469 7.43763 120.446 4.9619C119.423 2.48617 116.591 1.31053 114.121 2.33603C111.651 3.36154 110.478 6.19985 111.501 8.67558C112.524 11.1513 115.356 12.3269 117.826 11.3014Z" fill="#6316DB"/>
<path d="M138.732 14.5103C135.049 14.5103 130.798 15.9303 127.823 18.9835C124.54 22.368 123.336 26.2496 123.336 29.7998V43.0538H131.577V29.7998C131.577 27.4566 132.616 25.8236 133.632 24.8295C134.671 23.8118 136.135 22.7704 138.591 22.7704H140.999V14.5103H138.732Z" fill="#6316DB"/>
<path d="M42.3171 14.3213C34.2411 14.3213 27.8652 20.7116 27.8652 28.8061C27.8652 36.8059 33.9105 43.0779 42.1282 43.0779H42.813L48.3151 34.9361H43.7812C41.4906 34.9361 39.2472 34.3207 38.0429 33.1137C36.9331 32.0013 36.201 30.4865 36.201 28.8061C36.201 25.3032 38.8458 22.6761 42.3171 22.6761C45.812 22.6761 48.4568 25.3269 48.4568 28.8061V43.0779H56.7689V28.8061C56.7453 20.688 50.3695 14.3213 42.3171 14.3213Z" fill="#6316DB"/>
</g>
<defs>
<linearGradient id="paint0_linear_422_23876" x1="1.70553" y1="42.3019" x2="16.1734" y2="30.1895" gradientUnits="userSpaceOnUse">
<stop offset="0.00296474" stop-color="#FB2576"/>
<stop offset="0.2422" stop-color="#F82475"/>
<stop offset="0.412" stop-color="#EF2273"/>
<stop offset="0.5603" stop-color="#DF1E6F"/>
<stop offset="0.6963" stop-color="#C91969"/>
<stop offset="0.8238" stop-color="#AD1361"/>
<stop offset="0.9434" stop-color="#8A0A58"/>
<stop offset="1" stop-color="#770653"/>
</linearGradient>
<clipPath id="clip0_422_23876">
<rect width="141" height="43" fill="white" transform="translate(0 0.47998)"/>
</clipPath>
</defs>
</svg>
